<?xml version="1.0" encoding="UTF-8" standalone="no"?>
<svg
   width="267.19604"
   height="264.81201"
   viewBox="0 0 267.19604 264.81201"
   fill="none"
   version="1.1"
   id="svg22"
   sodipodi:docname="Blossom_Dark.svg"
   xmlns:inkscape="http://www.inkscape.org/namespaces/inkscape"
   xmlns:sodipodi="http://sodipodi.sourceforge.net/DTD/sodipodi-0.dtd"
   xmlns="http://www.w3.org/2000/svg"
   xmlns:svg="http://www.w3.org/2000/svg">
  <defs
     id="defs26" />
  <sodipodi:namedview
     id="namedview24"
     pagecolor="#ffffff"
     bordercolor="#000000"
     borderopacity="0.25"
     inkscape:showpageshadow="2"
     inkscape:pageopacity="0.0"
     inkscape:pagecheckerboard="0"
     inkscape:deskcolor="#d1d1d1"
     showgrid="false" />
  <path
     d="m 102.482,96.392016 v -25.158 c 0,-2.118 0.795,-3.708 2.649,-4.767 l 50.581,-29.128 c 6.884,-3.972 15.09401,-5.826 23.56701,-5.826 31.777,0 51.907,24.629 51.907,50.844 0,1.853 0,3.971 -0.27,6.091 l -52.432,-30.719 c -3.177,-1.852 -6.356,-1.852 -9.533,0 z m 118.10701,97.981004 v -60.114 c 0,-3.709 -1.589,-6.356 -4.767,-8.21 L 149.354,87.388016 l 21.71501,-12.448 c 1.854,-1.058 3.443,-1.058 5.295,0 l 50.581,29.130004 c 14.561,8.474 24.361,26.48 24.361,43.957 0,20.126 -11.91,38.663 -30.717,46.343 z m -133.730008,-52.963 -21.715,-12.711 c -1.852,-1.057 -2.648,-2.646 -2.648,-4.766 V 65.676016 c 0,-28.336 21.715,-49.786 51.110998,-49.786 11.122,0 21.447,3.709 30.189,10.328 l -52.168998,30.189 c -3.175,1.854 -4.766,4.502 -4.766,8.21 v 76.796004 z m 46.738998,27.01 -31.116,-17.477 v -37.072 l 31.116,-17.477004 31.11501,17.477004 v 37.072 z m 19.994,80.506 c -11.123,0 -21.449,-3.709 -30.189,-10.328 l 52.16701,-30.191 c 3.177,-1.852 4.766,-4.501 4.766,-8.21 v -76.795 l 21.981,12.711 c 1.854,1.057 2.649,2.647 2.649,4.767 v 58.257 c 0,28.335 -21.981,49.786 -51.37401,49.786 z m -62.760998,-59.054 -50.581,-29.13 c -14.566,-8.474 -24.362,-26.48 -24.362,-43.957 0,-20.391004 12.181,-38.663004 30.981,-46.343004 v 60.377004 c 0,3.709 1.591,6.356 4.767,8.21 l 66.204998,38.396 -21.714998,12.447 c -1.853,1.058 -3.443,1.058 -5.295,0 z m -2.911,43.429 c -29.925,0 -51.904,-22.51 -51.904,-50.315 0,-2.118 0.266,-4.236 0.528,-6.356 l 52.167,30.191 c 3.177,1.852 6.358,1.852 9.533,0 l 66.469008,-38.398 v 25.157 c 0,2.12 -0.79501,3.709 -2.64901,4.767 l -50.579,29.13 c -6.886,3.972 -15.095998,5.824 -23.567998,5.824 z m 65.671998,31.511 c 32.04301,0 58.78701,-22.773 64.88101,-52.962 29.663,-7.681 48.723,-35.486 48.723,-63.82 0,-18.537 -7.94,-36.543 -22.24,-49.520004 1.32,-5.561 2.12,-11.122 2.12,-16.682 0,-37.867 -30.722,-66.204 -66.208,-66.204 -7.149,0 -14.034,1.057 -20.91801,3.443 C 148.031,7.414016 131.613,1.6015625e-5 113.607,1.6015625e-5 81.564002,1.6015625e-5 54.819002,22.773016 48.726002,52.962016 19.067002,60.643016 1.5234376e-6,88.448016 1.5234376e-6,116.78202 c 0,18.538 7.9439999765624,36.544 22.2440004765624,49.52 -1.325,5.561 -2.119,11.123 -2.119,16.683 0,37.867 30.719,66.204 66.205,66.204 7.148,0 14.033998,-1.058 20.918998,-3.444 11.916,11.653 28.335,19.067 46.343,19.067 z"
     fill="#ffffff"
     id="path20"
     inkscape:export-filename="open_ai_blossom.svg"
     inkscape:export-xdpi="96"
     inkscape:export-ydpi="96" />
</svg>
